Patient4_TMGait_0pt7_01_right_25_GRF.mot
version=1
nRows=26
nColumns=19
inDegrees=no
endheader
time	F1x	F1y	F1z	M1x	M1y	M1z	F2x	F2y	F2z	M2x	M2y	M2z	EC1x	EC1y	EC1z	EC2x	EC2y	EC2z
28.22	3.3753	696.6839	70.2426	-220.9512	-76.4954	769.9459	2.4026	11.286	14.8169	-1.8023	-11.3726	9.3768	-0.0592	0.0182	-0.0073	-0.0462	0.0165	0.9585
28.2316	0.62702	703.3136	71.8568	-222.6736	-77.731	772.6613	1.4225	8.6401	9.8291	-0.80899	-7.4806	7.5758	-0.0592	0.0182	-0.0073	-0.0462	0.0165	0.9585
28.2431	-1.2203	711.0975	73.1853	-224.8021	-78.4671	776.2315	0.57896	6.4305	5.6497	0.026514	-4.1881	6.091	-0.0592	0.0182	-0.0073	-0.0462	0.0165	0.9585
28.2547	-2.02	719.6375	74.1536	-227.2461	-78.6314	780.3917	-0.085323	4.7847	2.5032	0.66664	-1.686	5.0075	-0.0592	0.0182	-0.0073	-0.0462	0.0165	0.9585
28.2663	-1.7833	728.4563	74.7263	-229.8714	-78.2079	784.7155	-0.5521	3.6716	0.3431	1.1123	0.050776	4.2827	-0.0592	0.0182	-0.0073	-0.0462	0.0165	0.9585
28.2779	-0.62641	737.0596	74.9467	-232.5261	-77.2598	788.6991	-0.87069	3.0024	-0.98549	1.3915	1.1412	3.8543	-0.0592	0.0182	-0.0073	-0.0462	0.0165	0.9585
28.2894	1.3088	744.9909	74.8347	-235.0614	-75.8285	791.844	-1.069	2.6255	-1.7026	1.5289	1.7555	3.5948	-0.0592	0.0182	-0.0073	-0.0462	0.0165	0.9585
28.301	3.892	751.8497	74.4616	-237.3349	-73.9891	793.7218	-1.204	2.3936	-2.0045	1.5459	2.05	3.3856	-0.0592	0.0182	-0.0073	-0.0462	0.0165	0.9585
28.3126	7.028	757.3847	73.84	-239.2477	-71.7599	794.0634	-1.2924	2.1321	-2.0643	1.4452	2.1608	3.0406	-0.0592	0.0182	-0.0073	-0.0462	0.0165	0.9585
28.3241	10.6476	761.4605	73.0358	-240.7342	-69.2059	792.7413	-1.3576	1.6799	-2.011	1.2157	2.1899	2.3999	-0.0592	0.0182	-0.0073	-0.0462	0.0165	0.9585
28.3357	14.7119	764.1262	72.0584	-241.7849	-66.3443	789.8222	-1.3853	0.86526	-1.9367	0.82891	2.1971	1.283	-0.0592	0.0182	-0.0073	-0.0462	0.0165	0.9585
28.3473	19.1693	765.5032	70.9843	-242.4099	-63.2648	785.468	-1.3685	-0.43529	-1.8806	0.25884	2.2029	-0.43278	-0.0592	0.0182	-0.0073	-0.0462	0.0165	0.9585
28.3589	23.9342	765.7667	69.857	-242.6352	-60.0395	779.923	-1.2572	-2.3097	-1.8437	-0.51478	2.1833	-2.8419	-0.0592	0.0182	-0.0073	-0.0462	0.0165	0.9585
28.3704	28.9014	765.0676	68.787	-242.4743	-56.8156	773.4298	-1.0156	-4.7329	-1.7931	-1.4764	2.0804	-5.9066	-0.0592	0.0182	-0.0073	-0.0462	0.0165	0.9585
28.382	33.9148	763.4491	67.8687	-241.9109	-53.7409	766.1405	-0.57082	-7.5245	-1.673	-2.5519	1.7952	-9.4159	-0.0592	0.0182	-0.0073	-0.0462	0.0165	0.9585
28.3936	38.8298	760.8362	67.2044	-240.8983	-50.9684	758.0719	0.1294	-10.2227	-1.393	-3.5664	1.1988	-12.7943	-0.0592	0.0182	-0.0073	-0.0462	0.0165	0.9585
28.4051	43.5045	757.1183	66.8599	-239.3947	-48.6151	749.1917	1.1529	-12.009	-0.83556	-4.2111	0.13415	-15.0344	-0.0592	0.0182	-0.0073	-0.0462	0.0165	0.9585
28.4167	47.8636	752.3502	66.845	-237.4301	-46.7227	739.5734	2.4944	-11.5872	0.12257	-4.0029	-1.544	-14.5262	-0.0592	0.0182	-0.0073	-0.0462	0.0165	0.9585
28.4283	51.879	746.8076	67.1715	-235.1199	-45.3077	729.4917	4.1032	-7.1503	1.6128	-2.2678	-3.9652	-9.0248	-0.0592	0.0182	-0.0073	-0.0462	0.0165	0.9585
28.4399	55.6	740.8961	67.7786	-232.6353	-44.294	719.31	5.7712	3.6171	3.7083	1.8505	-7.1402	4.374	-0.0592	0.0182	-0.0073	-0.0462	0.0165	0.9585
28.4514	59.0509	734.8815	68.596	-230.1092	-43.6	709.2586	7.1364	23.3502	6.4058	9.3203	-10.9134	28.9653	-0.0592	0.0182	-0.0073	-0.0462	0.0165	0.9585
28.463	62.2844	728.5677	69.4306	-227.5333	-43.0283	699.1264	7.5675	54.598	9.52	21.0638	-14.8031	67.9617	-0.0592	0.0182	-0.0073	-0.0462	0.0165	0.9585
28.4746	65.2895	721.1205	70.026	-224.6894	-42.3403	688.1348	6.171	99.0635	12.6043	37.6734	-17.8917	123.5093	-0.0592	0.0182	-0.0073	-0.0462	0.0165	0.9585
28.4861	68.0164	710.9827	70.008	-221.1241	-41.2139	674.8571	1.7302	156.5008	14.8198	58.9957	-18.6686	195.3402	-0.0592	0.0182	-0.0073	-0.0462	0.0165	0.9585
28.4977	70.2951	696.0422	68.9509	-216.2009	-39.3261	657.3915	-6.8705	223.5149	15.0092	83.6936	-15.3178	279.2685	-0.0592	0.0182	-0.0073	-0.0462	0.0165	0.9585
28.5093	71.864	673.9841	66.4344	-209.2121	-36.4018	633.6686	-19.3165	293.0522	12.0918	109.0952	-6.6798	366.4719	-0.0592	0.0182	-0.0073	-0.0462	0.0165	0.9585
